<svg width="16" height="16" viewBox="0 0 16 16" fill="none" xmlns="http://www.w3.org/2000/svg">
<g id="acs_icon_off_w16">
<path id="icon_min_&#229;&#183;&#178;&#229;&#133;&#179;&#233;&#151;&#173;" fill-rule="evenodd" clip-rule="evenodd" d="M8 1C4.13401 1 1 4.13401 1 8C1 11.866 4.13401 15 8 15C11.866 15 15 11.866 15 8C15 4.13401 11.866 1 8 1ZM10.9974 5.65761C10.7916 5.41881 10.5564 5.20581 10.2918 5.01802H10.2924C10.2315 4.9751 10.1627 4.94482 10.0899 4.92895C10.0172 4.91308 9.94199 4.91195 9.86879 4.92562C9.79639 4.93666 9.72699 4.9623 9.6648 5.00097C9.6026 5.03965 9.54892 5.09056 9.507 5.15062C9.46398 5.21143 9.43359 5.28024 9.41762 5.353C9.40164 5.42575 9.40041 5.50097 9.414 5.57421C9.42556 5.64752 9.45235 5.71759 9.49265 5.77991C9.53296 5.84222 9.58588 5.8954 9.648 5.936C10.0237 6.19353 10.3297 6.54029 10.5384 6.94518C10.7486 7.34689 10.8577 7.79377 10.8564 8.24716C10.8586 8.62501 10.7819 8.99916 10.6314 9.34574C10.487 9.6815 10.2804 9.98688 10.0224 10.2457C9.76347 10.5035 9.4581 10.7099 9.12241 10.8541C8.77862 11.0041 8.41202 11.0791 8.02383 11.0791C7.64598 11.0813 7.27182 11.0047 6.92525 10.8541C6.24666 10.5659 5.70709 10.0246 5.42108 9.34513C5.27408 9.00134 5.20028 8.63535 5.20028 8.24716C5.19751 7.80619 5.29886 7.37079 5.49608 6.97638C5.69495 6.57996 5.98712 6.23776 6.34746 5.9792C6.40711 5.93522 6.45737 5.87977 6.49529 5.81609C6.53321 5.75242 6.55801 5.68181 6.56826 5.60841C6.5805 5.53581 6.57738 5.46145 6.55908 5.39014C6.54079 5.31883 6.50774 5.25215 6.46206 5.19442C6.36846 5.07082 6.24606 4.99762 6.09607 4.97362C6.02275 4.96181 5.94779 4.96509 5.87579 4.98325C5.80378 5.0014 5.73623 5.03406 5.67728 5.07922C5.43146 5.26625 5.20656 5.47928 5.00649 5.7146C4.80669 5.9498 4.6387 6.203 4.5037 6.47359C4.3681 6.74419 4.2637 7.02918 4.1905 7.32917C4.11671 7.62917 4.08011 7.93516 4.08011 8.24716C4.0765 8.7761 4.18168 9.30014 4.3891 9.78673C4.58772 10.2552 4.87544 10.6807 5.23628 11.0395C5.59886 11.398 6.02541 11.6854 6.49386 11.8867C6.97658 12.0961 7.49763 12.2028 8.02383 12.1999C8.5534 12.2036 9.07793 12.0969 9.564 11.8867C10.0313 11.6859 10.4564 11.3985 10.8168 11.0395C11.1758 10.6792 11.4633 10.2541 11.664 9.78673C11.8728 9.30734 11.9772 8.79435 11.9772 8.24716C11.9773 7.61358 11.8228 6.98954 11.5272 6.42919C11.3802 6.1532 11.2032 5.8958 10.9974 5.65761ZM7.81074 8.23257C7.87823 8.26064 7.95075 8.27459 8.02383 8.27356V8.27416C8.09843 8.27587 8.17259 8.26227 8.24173 8.2342C8.31087 8.20613 8.37353 8.16419 8.42582 8.11096C8.53502 8.00176 8.58902 7.87096 8.58902 7.71797V4.36463C8.58979 4.29096 8.57574 4.21789 8.5477 4.14976C8.51966 4.08163 8.47822 4.01983 8.42582 3.96804C8.31662 3.85584 8.18283 3.80004 8.02383 3.80004C7.95038 3.79911 7.87754 3.81352 7.80997 3.84235C7.74241 3.87117 7.6816 3.91378 7.63144 3.96744C7.52224 4.07964 7.46824 4.21163 7.46824 4.36463V7.71737C7.46712 7.79055 7.48103 7.86318 7.5091 7.93078C7.53717 7.99837 7.57881 8.05949 7.63144 8.11036C7.68223 8.16291 7.74325 8.20451 7.81074 8.23257Z" fill="#BABABA"/>
</g>
</svg>
