<svg width="16" height="16" viewBox="0 0 16 16" fill="none" xmlns="http://www.w3.org/2000/svg">
<g id="acs_icon_on_w16">
<path id="icon_min_&#232;&#191;&#144;&#232;&#161;&#140;&#228;&#184;&#173;" d="M8.00078 1C4.13456 1 1 4.13456 1 8.00078C1 11.867 4.13456 15 8.00078 15C11.867 15 15 11.8654 15 8.00078C15 4.13456 11.867 1 8.00078 1ZM9.82055 4.97722L10.6444 4.15332C10.9196 3.78749 11.4683 3.78749 11.8357 4.15332C12.2016 4.42691 12.2016 4.97722 11.8357 5.34305L11.0118 6.16695C10.7367 6.53277 10.1879 6.53277 9.82055 6.16695C9.45472 5.89336 9.45472 5.34305 9.82055 4.97722ZM2.49615 8.27281V7.7225C2.49615 7.35667 2.7713 7.17376 3.04489 7.17376H4.87716C5.15232 7.17376 5.42591 7.44891 5.42591 7.7225V8.27281C5.42591 8.63864 5.15232 8.82312 4.78492 8.82312H3.04489C2.7713 8.82312 2.49615 8.54796 2.49615 8.27281ZM6.15757 11.0197L5.33367 11.8436C5.05852 12.2094 4.50977 12.2094 4.14394 11.8436C3.77811 11.57 3.77811 11.0197 4.14394 10.6538L4.96784 9.82993C5.24299 9.4641 5.79174 9.4641 6.15757 9.82993C6.52496 10.1051 6.52496 10.6538 6.15757 11.0197ZM6.15757 6.16695C5.79174 6.53277 5.24143 6.53277 4.96784 6.16695L4.14394 5.34305C3.77811 5.0679 3.77811 4.51915 4.14394 4.15332C4.41753 3.78749 4.96784 3.78749 5.33367 4.15332L6.15757 4.97722C6.52496 5.25237 6.52496 5.80112 6.15757 6.16695ZM8.81374 12.9426C8.81374 13.2178 8.53858 13.4929 8.26499 13.4929H7.71625C7.44109 13.4929 7.16594 13.2178 7.16594 12.9442V11.2026C7.16594 10.9274 7.44109 10.6538 7.71625 10.6538H8.26499C8.63082 10.6538 8.81374 10.8367 8.81374 11.2026V12.9426ZM8.81374 4.7943C8.81374 5.06946 8.53858 5.34461 8.26499 5.34461H7.71625C7.44109 5.34461 7.16594 5.06946 7.16594 4.7943V3.05427C7.16594 2.77912 7.34886 2.50553 7.71625 2.50553H8.26499C8.63082 2.50553 8.81374 2.78068 8.81374 3.05427V4.7943ZM11.8357 11.8436C11.5606 12.2094 11.0118 12.2094 10.6444 11.8436L9.82055 11.0197C9.45472 10.7445 9.45472 10.1958 9.82055 9.82836C10.0957 9.46253 10.6444 9.46253 11.0103 9.82836L11.8342 10.6523C12.2016 10.929 12.2016 11.4777 11.8357 11.8436ZM13.4835 8.27281C13.4835 8.54796 13.2084 8.82312 12.9332 8.82312H11.1932C10.918 8.82312 10.6444 8.54796 10.6444 8.27281V7.72406C10.6444 7.44891 10.9196 7.17532 11.1932 7.17532H12.9332C13.2084 7.17532 13.482 7.35824 13.482 7.72406L13.4835 8.27281Z" fill="#07C160"/>
</g>
</svg>
