<svg width="16" height="16" viewBox="0 0 16 16" fill="none" xmlns="http://www.w3.org/2000/svg">
<g id="acs_icon_broken_w16">
<path id="icon_min_&#230;&#150;&#173;&#229;&#188;&#128;&#232;&#191;&#158;&#230;&#142;&#165;" fill-rule="evenodd" clip-rule="evenodd" d="M8 1C4.13401 1 1 4.13401 1 8C1 11.866 4.13401 15 8 15C11.866 15 15 11.866 15 8C15 4.13401 11.866 1 8 1ZM7.70183 7.05082C7.87221 7.2136 7.87221 7.51347 7.70183 7.68483L7.19919 8.21602L7.76998 8.82433L8.30669 8.28456C8.46856 8.11321 8.76673 8.11321 8.93712 8.28456C9.1075 8.44735 9.1075 8.74722 8.93712 8.91857L8.40041 9.45834L8.86045 9.92956L7.42921 11.3689C6.76471 12.0715 5.72535 12.14 4.95862 11.6688L4.55821 12.0715C4.39635 12.2428 4.09817 12.2428 3.92779 12.0715C3.7574 11.9087 3.7574 11.6088 3.92779 11.4375L4.32819 11.0348C3.85963 10.2637 3.96187 9.21844 4.62637 8.55016L6.06613 7.11936L6.53469 7.59058L7.0714 7.05082C7.23327 6.87946 7.53144 6.88803 7.70183 7.05082ZM11.0073 4.32629L11.4077 3.92361C11.6122 3.75225 11.8763 3.75225 12.0722 3.96645C12.2426 4.12923 12.2426 4.4291 12.0722 4.60046L11.6718 5.00314C12.1404 5.77423 12.0381 6.81949 11.3736 7.48777L9.94239 8.92714L7.10548 6.0741L8.53671 4.62616C9.20122 3.92361 10.2406 3.85507 11.0073 4.32629Z" fill="#FA5151"/>
</g>
</svg>
