<svg width="16" height="16" viewBox="0 0 16 16" fill="none" xmlns="http://www.w3.org/2000/svg">
<g id="xsa_icon_fault_w16">
<path id="icon_min_&#229;&#188;&#130;&#229;&#184;&#184;" fill-rule="evenodd" clip-rule="evenodd" d="M8 1C4.13401 1 1 4.13401 1 8C1 11.866 4.13401 15 8 15C11.866 15 15 11.866 15 8C15 4.13401 11.866 1 8 1ZM8.4927 4.08443L12.1237 10.3739C12.2254 10.5499 12.2255 10.7667 12.1238 10.9427C12.0221 11.1187 11.8344 11.2272 11.6312 11.2272H4.36889C4.16572 11.2272 3.97796 11.1187 3.87627 10.9427C3.77458 10.7667 3.77458 10.5499 3.87627 10.3739L7.50746 4.08443C7.55737 3.99795 7.62918 3.92613 7.71566 3.8762C7.80213 3.82627 7.90023 3.79999 8.00008 3.8C8.09993 3.8 8.19802 3.82629 8.28449 3.87622C8.37097 3.92615 8.44277 3.99796 8.4927 4.08443ZM8.58819 6.2816C8.58819 6.06881 8.33199 5.83934 8.07354 5.84148C7.76195 5.84961 7.55889 6.06881 7.55911 6.2816L7.68678 8.4823C7.68678 8.6952 7.86086 8.86928 8.07365 8.86928C8.28643 8.86928 8.46051 8.69509 8.46051 8.4823L8.58819 6.2816ZM7.54189 9.93739C7.54189 10.231 7.77991 10.469 8.07354 10.469C8.36717 10.469 8.60519 10.231 8.60519 9.93739C8.60519 9.64376 8.36717 9.40574 8.07354 9.40574C7.77991 9.40574 7.54189 9.64376 7.54189 9.93739Z" fill="#FA9D3B"/>
</g>
</svg>
