<svg width="21" height="20" viewBox="0 0 21 20" fill="none" xmlns="http://www.w3.org/2000/svg">
<g id="acs_icon_off_w20">
<path id="Subtract" fill-rule="evenodd" clip-rule="evenodd" d="M10.5 18.8899C15.4098 18.8899 19.39 14.9097 19.39 9.99986C19.39 5.09005 15.4098 1.10986 10.5 1.10986C5.59017 1.10986 1.60999 5.09005 1.60999 9.99986C1.60999 14.9097 5.59017 18.8899 10.5 18.8899ZM14.8395 7.00505C15.2105 6.63405 15.2105 6.03255 14.8395 5.66155C14.4685 5.29055 13.867 5.29055 13.496 5.66155L10.7303 8.4273L7.96453 5.66155C7.59353 5.29055 6.99202 5.29055 6.62102 5.66155C6.25002 6.03255 6.25002 6.63405 6.62102 7.00505L9.38677 9.7708L6.62102 12.5366C6.25002 12.9075 6.25002 13.5091 6.62102 13.8801C6.99202 14.2511 7.59353 14.2511 7.96452 13.8801L10.7303 11.1143L13.496 13.8801C13.867 14.2511 14.4685 14.2511 14.8395 13.8801C15.2105 13.5091 15.2105 12.9075 14.8395 12.5366L12.0738 9.7708L14.8395 7.00505Z" fill="white"/>
</g>
</svg>
