<svg width="21" height="20" viewBox="0 0 21 20" fill="none" xmlns="http://www.w3.org/2000/svg">
<g id="acs_icon_on_w20">
<path id="Subtract" fill-rule="evenodd" clip-rule="evenodd" d="M10.5 18.8899C15.4098 18.8899 19.39 14.9097 19.39 9.99986C19.39 5.09005 15.4098 1.10986 10.5 1.10986C5.5902 1.10986 1.61002 5.09005 1.61002 9.99986C1.61002 14.9097 5.5902 18.8899 10.5 18.8899ZM9.55115 10.0733C9.55115 10.6082 10.0334 10.9499 10.5012 10.9499C10.9689 10.9499 11.4512 10.6082 11.4512 10.0733V5.3066C11.4512 4.7717 10.9689 4.42993 10.5012 4.42993C10.0334 4.42993 9.55115 4.7717 9.55115 5.3066V10.0733ZM7.28778 5.67788C7.00038 5.89822 6.73083 6.14592 6.4902 6.42159C5.62444 7.4053 5.15115 8.66819 5.15115 9.97675C5.15115 12.9363 7.54881 15.3499 10.5012 15.3499C13.4535 15.3499 15.8512 12.9363 15.8512 9.97675C15.8512 8.6679 15.3777 7.40473 14.5115 6.42092L14.5099 6.41912C14.2681 6.14777 13.9989 5.89421 13.7063 5.67508L13.6996 5.6703C13.5322 5.55021 13.3573 5.43328 13.1754 5.32544C12.7517 5.07424 12.2167 5.22954 11.9819 5.65034C11.7425 6.0706 11.8876 6.60638 12.3062 6.84566L12.3091 6.84728C12.4279 6.91392 12.5497 6.99477 12.6648 7.08149L12.6685 7.08418C12.8663 7.22963 13.0473 7.39644 13.207 7.58015L13.2087 7.5821C13.7897 8.24147 14.1083 9.0911 14.1083 9.97196C14.1083 11.9654 12.4904 13.5869 10.5012 13.5869C8.51192 13.5869 6.89401 11.9654 6.89401 9.97196C6.89401 9.0911 7.21263 8.24148 7.79357 7.58211L7.79528 7.58014C7.95516 7.39628 8.1371 7.22858 8.33247 7.08182L8.3402 7.0757C8.44593 6.99213 8.56387 6.91697 8.695 6.83878C9.11748 6.59464 9.24465 6.05914 9.01727 5.6483C8.78322 5.22543 8.24682 5.0689 7.82217 5.32065C7.64005 5.42862 7.46321 5.54671 7.29169 5.67488L7.28778 5.67788Z" fill="white"/>
</g>
</svg>
