<svg width="21" height="20" viewBox="0 0 21 20" fill="none" xmlns="http://www.w3.org/2000/svg">
<g id="acs_icon_restart_w20">
<path id="Subtract" fill-rule="evenodd" clip-rule="evenodd" d="M10.5 18.8899C15.4098 18.8899 19.39 14.9097 19.39 9.99986C19.39 5.09005 15.4098 1.10986 10.5 1.10986C5.59017 1.10986 1.60999 5.09005 1.60999 9.99986C1.60999 14.9097 5.59017 18.8899 10.5 18.8899ZM11.084 5.35304C11.2598 4.97828 11.1746 4.51785 10.8467 4.23286C10.4507 3.88868 9.85068 3.9307 9.50651 4.32671L8.18561 5.84653C7.84144 6.24254 7.88346 6.84258 8.27947 7.18675C8.31539 7.21797 8.35299 7.24602 8.39193 7.27091L8.40839 7.28323L9.95209 8.41314C10.3755 8.72303 10.9699 8.63104 11.2798 8.20766C11.4617 7.95919 11.5051 7.65179 11.4244 7.37757C12.6073 7.78981 13.4572 8.91564 13.4572 10.2384C13.4572 11.9099 12.1001 13.2669 10.4286 13.2669C8.75707 13.2669 7.4 11.9099 7.4 10.2384C7.4 10.042 7.41611 9.87192 7.43451 9.71859C7.43865 9.68414 7.44325 9.64823 7.44793 9.61169L7.44794 9.61162C7.46236 9.49901 7.47756 9.38041 7.48224 9.2802C7.48869 9.14255 7.48207 8.95943 7.38502 8.78569C7.28209 8.60141 7.11595 8.49345 6.93994 8.42589C6.69886 8.33336 6.44929 8.33502 6.22412 8.44871C6.01301 8.5553 5.86874 8.73742 5.77124 8.92029C5.57845 9.28188 5.5 9.77314 5.5 10.2384C5.5 12.9592 7.70773 15.1669 10.4286 15.1669C13.1494 15.1669 15.3572 12.9592 15.3572 10.2384C15.3572 7.73973 13.4953 5.67382 11.084 5.35304Z" fill="white"/>
</g>
</svg>
