<svg width="16" height="17" viewBox="0 0 16 17" fill="none" xmlns="http://www.w3.org/2000/svg">
<g id="acs_icon_setting_w16">
<path id="&#233;&#133;&#141;&#231;&#189;&#174;" opacity="0.8" d="M8.0038 11.5C8.59693 11.5 9.17673 11.3235 9.6699 10.9928C10.1631 10.6621 10.5474 10.1921 10.7744 9.64223C11.0014 9.09233 11.0608 8.48723 10.9451 7.90345C10.8294 7.31968 10.5437 6.78345 10.1243 6.36258C9.70494 5.9417 9.17059 5.65508 8.58886 5.53896C8.00713 5.42284 7.40415 5.48243 6.85617 5.71021C6.30819 5.93799 5.83983 6.32372 5.5103 6.81861C5.18078 7.31351 5.0049 7.89536 5.0049 8.49057C5.00738 9.28795 5.32413 10.052 5.886 10.6158C6.44786 11.1796 7.2092 11.4975 8.0038 11.5ZM1.0001 8.49057C0.999336 7.99344 1.04656 7.49742 1.14111 7.00943C1.55974 6.96318 1.96112 6.81643 2.31129 6.58162C2.66147 6.3468 2.95015 6.03081 3.15291 5.66038C3.36902 5.27233 3.491 4.83865 3.50896 4.39447C3.52693 3.9503 3.44038 3.50813 3.25632 3.10377C4.00004 2.379 4.89634 1.83094 5.87919 1.5C6.1117 1.86219 6.43104 2.16006 6.80797 2.36633C7.1849 2.5726 7.60737 2.68069 8.0367 2.68069C8.46604 2.68069 8.88851 2.5726 9.26544 2.36633C9.64237 2.16006 9.96171 1.86219 10.1942 1.5C11.1753 1.83802 12.0684 2.39251 12.8077 3.12264C12.6296 3.52594 12.5479 3.96543 12.5691 4.40604C12.5903 4.84666 12.7139 5.2762 12.9299 5.66038C13.1278 6.01486 13.4047 6.31856 13.739 6.5477C14.0734 6.77684 14.4561 6.92519 14.8571 6.98113C15.0651 8.04858 15.0458 9.14808 14.8007 10.2075C14.4057 10.274 14.031 10.4301 13.7051 10.6639C13.3793 10.8977 13.111 11.203 12.9205 11.5566C12.7254 11.9072 12.6069 12.2955 12.5729 12.6957C12.5388 13.0958 12.59 13.4986 12.7231 13.8774C11.9621 14.6172 11.0423 15.1722 10.0344 15.5C9.79529 15.1923 9.48938 14.9433 9.13995 14.7721C8.79052 14.6008 8.40677 14.5118 8.0179 14.5118C7.62903 14.5118 7.24529 14.6008 6.89586 14.7721C6.54642 14.9433 6.24052 15.1923 6.0014 15.5C4.99668 15.1839 4.0771 14.6418 3.31273 13.9151C3.45709 13.5296 3.51589 13.1172 3.48504 12.7066C3.45419 12.296 3.33443 11.8971 3.13411 11.5377C2.93789 11.1727 2.65848 10.8594 2.31867 10.6233C1.97885 10.3872 1.58826 10.2351 1.17872 10.1792C1.05715 9.62471 0.997242 9.05836 1.0001 8.49057Z" fill="#364064" fill-opacity="0.8"/>
</g>
</svg>
